<?xml version="1.0" encoding="utf-8"?>
<!-- Generator: Adobe Illustrator 15.0.0, SVG Export Plug-In . SVG Version: 6.00 Build 0)  -->
<!DOCTYPE svg PUBLIC "-//W3C//DTD SVG 1.1//EN" "http://www.w3.org/Graphics/SVG/1.1/DTD/svg11.dtd">
<svg version="1.1" id="Layer_1" xmlns="http://www.w3.org/2000/svg" xmlns:xlink="http://www.w3.org/1999/xlink" x="0px" y="0px"
	 width="482.51px" height="226.563px" viewBox="0 0 482.51 226.563" enable-background="new 0 0 482.51 226.563"
	 xml:space="preserve">
<g>
	<path stroke="#000000" stroke-width="0.5" stroke-linecap="round" stroke-linejoin="round" d="M348.758,59.763
		c0,28.54,0,57.085,0,85.625c10.539,0,21.077,0,31.615,0c0-28.323,0-56.644,0-84.966c5.137-1.086,14.623-1.086,19.76,0
		c0,34.033,0,68.058,0,102.091c-6.586,0-13.174,0-19.76,0c0-4.393,0-8.779,0-13.174c-6.5,1.982-8.266,11.283-15.148,13.174
		c-3.398,0.93-14.188,0.988-17.784,0c-4.097-1.127-17.382-14.563-18.442-18.441c-2.707-9.861,0-26.624,0-41.496
		c0-16.183-1.027-33.321,1.318-42.813C336.461,59.763,342.614,59.763,348.758,59.763z"/>
	<path stroke="#000000" stroke-width="0.5" stroke-linecap="round" stroke-linejoin="round" d="M298.042,78.206
		c-1.146-4.169-15.372-17.784-17.783-18.442c-11.025-3.023-22.578,2.266-34.908,0c-0.402,0.04-0.777,0.099-0.659,0.659
		c-4.617,7.232-15.004,9.63-17.125,18.442c-1.851,7.687,0,20.668,0,32.274c0,11.045-2.167,25.021,0,32.934
		c1.285,4.676,15.313,17.764,17.784,18.441c6.678,1.832,29.521,1.475,34.908,0c4.406-1.205,16.525-13.213,17.783-18.441
		c1.891-7.852,0-21.4,0-32.934C298.042,100.336,300.203,86.09,298.042,78.206z M278.942,145.388c-10.539,0-21.078,0-31.616,0
		c0.441-22.611-0.876-46.982,0.659-68.5c10.117,0.422,21.933-0.856,30.957,0.659C278.942,100.159,278.942,122.777,278.942,145.388z"
		/>
	<path stroke="#000000" stroke-width="0.5" stroke-linecap="round" stroke-linejoin="round" d="M454.143,26.172
		c1.535,9.663,0.217,22.17,0.658,32.933c7.904,1.535,18.66,0.224,27.664,0.659c0.533,2.167-3.801,5.776-6.588,8.563
		c-3.074,3.076-6.611,6.185-9.221,8.563c-3.734,0-7.463,0-11.197,0c-1.533,21.294-0.217,45.447-0.658,67.842
		c6.811,1.535,16.467,0.223,24.371,0.658c0,5.711,0,11.414,0,17.125c-10.125-1.482-18.193,2.055-25.688,0
		c-8.373-2.293-11.85-14.082-18.443-17.783c0-22.611,0-45.23,0-67.842c-7.463,0-14.932,0-22.395,0
		c-0.559-2.134,3.828-5.803,6.588-8.563c3.029-3.03,6.652-5.678,8.563-8.563c2.416,0,4.828,0,7.244,0
		C431.743,38.897,447.385,36.98,454.143,26.172z"/>
	<path stroke="#000000" stroke-width="0.5" stroke-linecap="round" stroke-linejoin="round" d="M20.75,26.172
		C16.903,32.324,5.587,36.46,3.625,44.614c-1.805,7.476,0,19.016,0,28.981c0,29.369,0,62.195,0,88.918c6.369,0,12.732,0,19.101,0
		c0-17.125,0-34.25,0-51.375c15.366,0.441,32.491-0.876,46.764,0.659c0,16.908,0,33.808,0,50.716c6.369,0,12.732,0,19.101,0
		c0-45.448,0-90.894,0-136.341C65.979,26.172,43.361,26.172,20.75,26.172z M69.49,55.812c0,12.731,0,25.47,0,38.202
		c-11.612,1.798-21.215-2.49-30.298,0c-7.581,2.082-9.524,12.475-16.466,14.49c0-21.735,0-43.471,0-65.207
		c19.101,0,38.202,0,57.303,0C80.779,46.538,72.013,51.471,69.49,55.812z"/>
	<path stroke="#000000" stroke-width="0.5" stroke-linecap="round" stroke-linejoin="round" d="M197.269,111.138
		c0-11.579,0-23.112,0-33.591c-5.941-2.964-10.031-15.479-18.442-17.784c-3.893-1.067-13.41-1.561-19.101,0
		c-5.941,1.627-8.51,10.512-13.832,11.856c-0.441-22.177,0.876-46.106-0.659-67.183c-2.747,7.825-16.137,12.001-18.442,20.418
		c-2.463,8.971,0,22.829,0,34.25c0,34.487,0,72.584,0,104.067c6.586-2.199,13.048-13.732,19.101-16.467c0,5.27,0,10.539,0,15.809
		c11.415,0,22.835,0,34.25,0c3.649-6.633,14.806-9.32,17.125-17.783C199.672,135.957,197.269,122.474,197.269,111.138z
		 M178.167,145.388c-10.756,0-21.518,0-32.274,0c0-22.176,0-44.347,0-66.524c-0.026-1.126,0.487-1.706,1.317-1.976
		c10.097,0,20.201,0,30.298,0C179.043,98.406,177.732,122.771,178.167,145.388z"/>
	<g>
		<path stroke="#000000" stroke-width="0.5" stroke-linecap="round" stroke-linejoin="round" d="M468.055,202.08
			c1.291-2.283,2.467-4.68,6.527-4.195c0-2.484,0-4.973,0-7.459c-1.568-1.076-5.119-0.162-7.461-0.465c0,5.281,0,10.568,0,15.85
			c3.885,0,7.771,0,11.656,0c0,1.398,0,2.797,0,4.195c-5.174-0.629-8.373,0.9-11.656,0c-5.709-1.566-6.451-13.053-4.66-19.58
			c1.281-4.67,6.563-6.061,11.654-4.662C481.704,187.843,481.491,206.375,468.055,202.08z"/>
		<path stroke="#000000" stroke-width="0.5" stroke-linecap="round" stroke-linejoin="round" d="M441.481,185.763
			c1.4,0,2.799,0,4.197,0c0,1.088,0,2.178,0,3.264c6.354-9.641,17.617,4.807,7.459,8.393c0-2.332,0-4.662,0-6.994
			c-1.566-1.076-5.119-0.162-7.459-0.465c0,6.68,0,13.365,0,20.045c-1.398,0-2.797,0-4.197,0
			C441.481,201.927,441.481,193.843,441.481,185.763z"/>
		<path stroke="#000000" stroke-width="0.5" stroke-linecap="round" stroke-linejoin="round" d="M418.639,210.005
			c-1.398,0-2.797,0-4.195,0c0-1.086,0-2.176,0-3.264c-2.83,4.15-10.313,4.156-12.121-0.932c-0.732-6.172,0.73-10.148,4.195-12.121
			c2.018,0,4.041,0,6.061,0c0.979,0.789-2.289,5.086-6.061,4.195c0,2.645,0,5.283,0,7.926c2.643,0,5.281,0,7.926,0
			c0-5.127,0-10.256,0-15.385c-3.268-1.08-8.547-0.158-12.588-0.465c1.113-6.246,15.492-5.529,16.783,0
			C418.639,196.64,418.639,203.326,418.639,210.005z"/>
		<path stroke="#000000" stroke-width="0.5" stroke-linecap="round" stroke-linejoin="round" d="M386.006,202.08
			c1.291-2.283,2.465-4.68,6.525-4.195c0-2.484,0-4.973,0-7.459c-1.566-1.076-5.119-0.162-7.459-0.465c0,5.281,0,10.568,0,15.85
			c3.885,0,7.771,0,11.654,0c0,1.398,0,2.797,0,4.195c-5.174-0.629-8.371,0.9-11.654,0c-5.711-1.566-6.451-13.053-4.66-19.58
			c1.281-4.67,6.563-6.061,11.654-4.662C399.655,187.843,399.442,206.375,386.006,202.08z"/>
		<path stroke="#000000" stroke-width="0.5" stroke-linecap="round" stroke-linejoin="round" d="M305.354,185.763
			c1.399,0,2.799,0,4.197,0c0,6.527,0,13.055,0,19.58c1.565,1.078,5.118,0.164,7.458,0.467c0-6.68,0-13.365,0-20.047
			c1.398,0,2.798,0,4.196,0c-1.642,11.596,3.925,32.242-4.196,36.363c-3.729,0-7.458,0-11.188,0
			c-1.212-2.518,5.086-5.436,10.723-4.195c1.082-2.648,0.158-7.301,0.466-10.723c-2.106,0.584-2.597,3.273-6.526,2.797
			C302.665,209.064,306.045,194.935,305.354,185.763z"/>
		<path stroke="#000000" stroke-width="0.5" stroke-linecap="round" stroke-linejoin="round" d="M257.803,185.763
			c0,1.088,0,2.178,0,3.264c3.25-1.324,2.582-3.795,6.993-3.264c7.683,0.93,4.522,15.041,5.128,24.242c-1.398,0-2.797,0-4.195,0
			c0-6.525,0-13.053,0-19.58c-1.721-1.076-5.432-0.162-7.926-0.465c0,6.68,0,13.365,0,20.045c-1.398,0-2.797,0-4.195,0
			c0-8.078,0-16.162,0-24.242C255.006,185.763,256.405,185.763,257.803,185.763z"/>
		<path stroke="#000000" stroke-width="0.5" stroke-linecap="round" stroke-linejoin="round" d="M233.562,185.763
			c0,6.527,0,13.055,0,19.58c1.566,1.078,5.119,0.164,7.459,0.467c0-6.68,0-13.365,0-20.047c1.398,0,2.797,0,4.196,0
			c0,8.08,0,16.164,0,24.242c-1.086,0-2.177,0-3.264,0c-1.683,0.443-0.647-1.836-0.932-2.797c-2.107,0.584-2.597,3.273-6.527,2.797
			c-7.818-0.941-4.438-15.07-5.128-24.242C230.764,185.763,232.163,185.763,233.562,185.763z"/>
		<path stroke="#000000" stroke-width="0.5" stroke-linecap="round" stroke-linejoin="round" d="M194.401,185.763
			c1.398,0,2.797,0,4.195,0c0,1.088,0,2.178,0,3.264c2.34-3.113,8.821-4.875,11.189-0.465c2.4-4.541,10.354-2.896,11.654,1.398
			c0,6.68,0,13.365,0,20.045c-1.399,0-2.797,0-4.196,0c0-6.525,0-13.053,0-19.58c-1.413-1.076-4.807-0.162-6.993-0.465
			c0,6.68,0,13.365,0,20.045c-1.398,0-2.797,0-4.196,0c0-6.525,0-13.053,0-19.58c-1.566-1.076-5.119-0.162-7.459-0.465
			c0,6.68,0,13.365,0,20.045c-1.398,0-2.797,0-4.195,0C194.401,201.927,194.401,193.843,194.401,185.763z"/>
		<path stroke="#000000" stroke-width="0.5" stroke-linecap="round" stroke-linejoin="round" d="M159.437,185.763
			c1.398,0,2.797,0,4.196,0c0,1.088,0,2.178,0,3.264c1.981-2.959,8.806-5.197,10.722-0.465c2.508-4.453,10.792-3.072,12.121,1.398
			c0,6.68,0,13.365,0,20.045c-1.398,0-2.797,0-4.196,0c0-6.525,0-13.053,0-19.58c-1.412-1.076-4.806-0.162-6.993-0.465
			c0,6.68,0,13.365,0,20.045c-1.553,0-3.109,0-4.662,0c0-6.525,0-13.053,0-19.58c-1.412-1.076-4.806-0.162-6.993-0.465
			c0,6.68,0,13.365,0,20.045c-1.399,0-2.797,0-4.196,0C159.437,201.927,159.437,193.843,159.437,185.763z"/>
		<path stroke="#000000" stroke-width="0.5" stroke-linecap="round" stroke-linejoin="round" d="M151.512,189.96
			c-1.329-3.805-7.356-5.381-12.587-3.73c-5.622,3.633-6.06,21.654,0.933,23.775C152.733,213.908,152.342,200.757,151.512,189.96z
			 M147.316,205.81c-2.485,0-4.975,0-7.459,0c0-5.281,0-10.568,0-15.85c2.484,0,4.974,0,7.459,0
			C147.316,195.242,147.316,200.529,147.316,205.81z"/>
		<path stroke="#000000" stroke-width="0.5" stroke-linecap="round" stroke-linejoin="round" d="M94.17,210.005
			c-1.398,0-2.797,0-4.196,0c0-1.086,0-2.176,0-3.264c-2.83,4.15-10.312,4.156-12.121-0.932
			c-0.947-8.404,1.752-13.164,10.256-12.121c0.91,0.719-1.967,5.404-6.061,4.195c0,2.645,0,5.283,0,7.926c2.644,0,5.282,0,7.925,0
			c0-5.127,0-10.256,0-15.385c-2.955-1.08-7.92-0.158-11.655-0.465c-2.079-5.223,15.072-6.289,15.851,0
			C94.17,196.64,94.17,203.326,94.17,210.005z"/>
		<path stroke="#000000" stroke-width="0.5" stroke-linecap="round" stroke-linejoin="round" d="M38.228,210.005
			c-1.398,0-2.797,0-4.196,0c0-1.086,0-2.176,0-3.264c-2.83,4.15-10.312,4.156-12.121-0.932c-0.732-6.172,0.731-10.148,4.195-12.121
			c2.019,0,4.042,0,6.061,0c0.979,0.789-2.289,5.086-6.061,4.195c0,2.645,0,5.283,0,7.926c2.644,0,5.282,0,7.925,0
			c0-5.127,0-10.256,0-15.385c-3.268-1.08-8.545-0.158-12.587-0.465c1.114-6.246,15.492-5.529,16.783,0
			C38.228,196.64,38.228,203.326,38.228,210.005z"/>
		<path stroke="#000000" stroke-width="0.5" stroke-linecap="round" stroke-linejoin="round" d="M44.754,185.298
			c8.61,1.021,1.188,18.078,7.459,21.443c8.298-1.184,0.368-21.07,8.391-20.979c0.723,7.516-2.331,18.807,3.729,20.979
			c7.203-2.586-0.983-20.563,7.925-21.443c-1.03,5.533,1.375,12.693,0,17.715c-1.659,6.047-9.706,10.033-13.519,3.264
			c-3.147,0.992-2.48,3.426-5.595,3.729C43.584,210.929,44.307,195.843,44.754,185.298z"/>
		<path stroke="#000000" stroke-width="0.5" stroke-linecap="round" stroke-linejoin="round" d="M430.293,178.304
			c2.047,0.598,0.406,4.877,0.934,6.994c0.949,1.066,3.869,0.168,5.594,0.465c1.025,0.686-2.164,4.893-5.594,4.197
			c0,5.127,0,10.256,0,15.383c0.949,1.068,3.869,0.168,5.594,0.467c0,1.398,0,2.797,0,4.195c-12.145,2.195-10.41-9.482-10.258-19.58
			c-0.797-1.066-3.557-0.172-5.127-0.465c1.123-1.986,2.135-4.084,5.127-4.197C425.897,181.369,429.17,180.912,430.293,178.304z"/>
		<path stroke="#000000" stroke-width="0.5" stroke-linecap="round" stroke-linejoin="round" d="M294.167,178.304
			c2.046,0.598,0.404,4.877,0.932,6.994c0.951,1.066,3.869,0.168,5.594,0.465c1.027,0.686-2.162,4.893-5.594,4.197
			c0,5.127,0,10.256,0,15.383c0.951,1.068,3.869,0.168,5.594,0.467c0,1.398,0,2.797,0,4.195c-12.144,2.195-10.41-9.482-10.255-19.58
			c-0.798-1.066-3.558-0.172-5.128-0.465c1.123-1.986,2.135-4.084,5.128-4.197C289.77,181.369,293.042,180.912,294.167,178.304z"/>
		<path stroke="#000000" stroke-width="0.5" stroke-linecap="round" stroke-linejoin="round" d="M351.973,177.839
			c0,1.398,0,2.797,0,4.195c-2.331,0-4.661,0-6.992,0c0,9.324,0,18.648,0,27.971c-1.398,0-2.797,0-4.195,0c0-9.17,0-18.334,0-27.506
			c-1.413-1.076-4.807-0.162-6.994-0.465c0-1.398,0-2.797,0-4.195C339.852,177.839,345.913,177.839,351.973,177.839z"/>
		<path stroke="#000000" stroke-width="0.5" stroke-linecap="round" stroke-linejoin="round" d="M124.939,189.027
			c0-2.33,0-4.662,0-6.992c-3.263,0-6.526,0-9.79,0c-1.086,6.992-0.154,16.004-0.466,23.775c3.264,0,6.527,0,9.79,0
			c0.187-3.24,2.942-6.373,4.662-6.525c4.927,12.963-16.731,14.25-19.114,6.059c-0.881-3.029-1.072-18.246,0-22.377
			c1.095-4.227,7.245-7.104,14.452-5.127C129.182,179.13,130.93,187.941,124.939,189.027z"/>
		<path stroke="#000000" stroke-width="0.5" stroke-linecap="round" stroke-linejoin="round" d="M18.648,177.839
			c0,1.398,0,2.797,0,4.195c-2.332,0-4.662,0-6.993,0c0,9.324,0,18.648,0,27.971c-1.552,0-3.109,0-4.662,0c0-9.17,0-18.334,0-27.506
			c-1.413-1.076-4.807-0.162-6.993-0.465c0-1.398,0-2.797,0-4.195C6.214,177.839,12.434,177.839,18.648,177.839z"/>
		<g>
			<path stroke="#000000" stroke-width="0.5" stroke-linecap="round" stroke-linejoin="round" d="M281.579,185.763
				c-6.145,3.18-2.969,15.678-3.729,24.242c1.398,0,2.798,0,4.196,0C281.733,202.08,282.666,192.916,281.579,185.763z"/>
			<path stroke="#000000" stroke-width="0.5" stroke-linecap="round" stroke-linejoin="round" d="M282.045,177.373
				c-1.398,0-2.798,0-4.196,0c0,1.553,0,3.109,0,4.662c1.398,0,2.798,0,4.196,0C282.045,180.482,282.045,178.925,282.045,177.373z"
				/>
		</g>
		<path stroke="#000000" stroke-width="0.5" stroke-linecap="round" stroke-linejoin="round" d="M360.366,173.177
			c1.086,4.199,0.158,10.41,0.466,15.385c2.802-0.07,2.4-3.045,6.526-2.799c8.451,0.51,4.877,14.752,5.594,24.242
			c-1.398,0-2.797,0-4.195,0c0-6.525,0-13.053,0-19.58c-1.721-1.076-5.432-0.162-7.925-0.465c0,6.68,0,13.365,0,20.045
			c-1.399,0-2.798,0-4.196,0c1.692-9.342-2.26-23.93,0-32.166C357.256,175.574,359.563,174.884,360.366,173.177z"/>
	</g>
</g>
</svg>
