<?xml version="1.0" encoding="utf-8"?>
<!-- Generator: Adobe Illustrator 15.0.0, SVG Export Plug-In . SVG Version: 6.00 Build 0)  -->
<!DOCTYPE svg PUBLIC "-//W3C//DTD SVG 1.1//EN" "http://www.w3.org/Graphics/SVG/1.1/DTD/svg11.dtd">
<svg version="1.1" id="Layer_1" xmlns="http://www.w3.org/2000/svg" xmlns:xlink="http://www.w3.org/1999/xlink" x="0px" y="0px"
	 width="289.25px" height="127.001px" viewBox="18.623 10.68 289.25 127.001" enable-background="new 18.623 10.68 289.25 127.001"
	 xml:space="preserve">
<path fill="#B83F4E" d="M259.306,82.208c-20.357,2.125-28.686-7.52-31.941-13.942c-14.935-1.359-14.95-8.384-14.95-8.384
	s2.868-10.546,24.624-10.874c-2.24-2.072-3.651-5.027-3.651-8.319l-5.013-3.142l5.013-0.028v3.17
	c0-6.265,5.077-11.342,11.342-11.342c6.264,0,11.342,5.077,11.342,11.342c0,3.355-1.466,6.362-3.782,8.438
	c1.009,0.047,2.043,0.11,3.129,0.206c12.758,1.13,28.539,9.313,42.33,18.225V29.277c0-6.627-5.373-12-12-12h-64
	c-6.627,0-12,5.373-12,12v64c0,6.627,5.373,12,12,12h64c6.627,0,12-5.373,12-12v-8.856C285.424,82.324,271.454,80.94,259.306,82.208
	z"/>
<path fill="#50BD3F" d="M102.748,17.277h-64c-6.627,0-12,5.373-12,12v13.519c0.25-0.005,0.499-0.019,0.75-0.019
	c9.563,0,18.222,3.864,24.505,10.113c1.945-5.872,7.47-10.113,13.995-10.113c6.545,0,12.087,4.267,14.016,10.168l13.984,2.582
	l-13.51,4.748l-0.004-0.011c-1.284,6.837-7.276,12.013-14.486,12.013c-1.48,0-2.907-0.224-4.255-0.629
	c0.326,1.912,0.505,3.875,0.505,5.879c0,11.339-5.433,21.407-13.836,27.75h54.336c6.627,0,12-5.373,12-12v-64
	C114.748,22.65,109.375,17.277,102.748,17.277z"/>
<rect x="46.248" y="34.277" fill="none" width="50" height="52.5"/>
<path d="M64.471,65.332c1.073,0.762,3.417,2.56,7.03,5.392c3.81,2.987,6.709,5.151,8.701,6.488c1.992,1.338,3.413,2.124,4.263,2.358
	c0.851,0.234,2.397,0.43,4.645,0.586c0.078,0.274,0.117,0.576,0.117,0.908c0,1.25-0.327,2.222-0.981,2.915
	c-0.655,0.692-1.538,1.04-2.65,1.04c-1.134,0-2.49-0.415-4.072-1.245s-4.463-2.817-8.644-5.962l-6.68-5.068
	c-2.285-1.816-4.424-3.154-6.416-4.014c-0.488-0.078-1.084,0.176-1.787,0.762c-0.604,1.23-1.036,2.783-1.289,4.658
	c-0.254,1.875-0.381,3.33-0.381,4.365c-0.273,5.371-1.387,8.057-3.34,8.057c-0.762,0-1.367-0.249-1.816-0.747
	s-0.674-1.128-0.674-1.89c0-0.566,0.127-1.367,0.381-2.402c0.586-2.421,1.396-9.453,2.433-21.094
	c0.352-3.574,0.791-7.167,1.317-10.781c0.527-3.613,0.928-5.752,1.201-6.416s0.634-1.152,1.084-1.465
	c0.449-0.313,0.879-0.469,1.289-0.469c1.816,0,2.705,1.104,2.666,3.311c-1.348,5.547-2.188,10.704-2.52,15.469
	c-0.117,1.504-0.274,2.999-0.47,4.482c0,0.078,0.004,0.151,0.016,0.22c0.01,0.069,0.111,0.06,0.308-0.029
	c0.195-0.088,0.815-0.517,1.86-1.288c1.044-0.771,2.178-1.671,3.397-2.695c1.221-1.025,2.192-1.938,2.915-2.739
	c0.449-0.527,1.044-1.123,1.787-1.787c2.421-2.168,4.219-3.882,5.392-5.142c1.172-1.26,2.266-2.758,3.28-4.497
	c1.425-2.5,2.451-3.75,3.076-3.75c0.685,0,1.396,0.366,2.139,1.099s1.113,1.46,1.113,2.184c0,1.875-2.969,5.41-8.906,10.604
	c-1.309,1.133-2.148,1.885-2.52,2.256C71.072,59.629,68.65,61.739,64.471,65.332z"/>
<rect x="229.248" y="34.277" fill="none" width="50" height="52.5"/>
<path d="M263.76,75.293c0.762,0,1.143,0.47,1.143,1.406c0,0.977-1.084,2.373-3.252,4.189c-2.168,1.815-4.673,3.262-7.515,4.336
	c-2.843,1.073-5.445,1.61-7.809,1.61c-3.457,0-6.605-1.143-9.448-3.428c-2.842-2.285-4.263-5.596-4.263-9.932
	c0-7.91,3.403-15.61,10.21-23.102c6.807-7.49,13.364-11.234,19.673-11.234c2.363,0,4.252,0.728,5.669,2.183
	c1.416,1.455,2.124,3.149,2.124,5.083c0,1.797-0.103,3.213-0.308,4.248c-0.205,1.036-0.825,1.909-1.86,2.622
	c-1.036,0.713-1.864,1.068-2.489,1.068c-0.45,0-0.841-0.194-1.173-0.586c-0.333-0.391-0.498-0.918-0.498-1.582
	c0-0.448,0.166-1.387,0.498-2.813c0.332-1.406,0.498-2.451,0.498-3.135c0-1.992-0.869-2.988-2.606-2.988
	c-2.695,0-6.031,1.548-10.005,4.644c-3.976,3.097-7.35,7.021-10.122,11.777c-2.773,4.756-4.16,9.136-4.16,13.14
	c0,2.677,0.795,4.897,2.388,6.665c1.592,1.769,3.862,2.651,6.813,2.651c1.698,0,3.765-0.425,6.195-1.274
	c2.432-0.849,4.663-1.986,6.694-3.412C262.188,76.006,263.389,75.293,263.76,75.293z"/>
<path d="M87.248,168.828"/>
<path fill="#B8743F" d="M194.748,17.277h-64c-6.627,0-12,5.373-12,12v64c0,6.627,5.373,12,12,12h0.757
	c-4.332-6.837-8.216-14.063-9.544-18.411c-2.151-7.045,11.12-7.831,16.706-1.531s-9.814-26.19-9.814-26.19
	c4.346-6.398,24.954-6.393,33.809,7.574c0.169,0.267,0.327,0.544,0.489,0.819c0.162-0.274,0.32-0.552,0.489-0.819
	c8.854-13.967,29.463-13.973,33.809-7.574c0,0-15.401,32.49-9.815,26.19s18.858-5.514,16.706,1.531
	c-1.327,4.347-5.211,11.572-9.542,18.409c6.605-0.026,11.953-5.387,11.953-11.998v-64C206.748,22.65,201.375,17.277,194.748,17.277z
	"/>
<rect x="138.248" y="34.277" fill="none" width="50" height="52.5"/>
<path d="M172.76,75.293c0.763,0,1.144,0.47,1.144,1.406c0,0.977-1.084,2.373-3.252,4.189c-2.168,1.815-4.673,3.262-7.515,4.336
	c-2.843,1.073-5.445,1.61-7.809,1.61c-3.457,0-6.605-1.143-9.448-3.428c-2.842-2.285-4.263-5.596-4.263-9.932
	c0-7.91,3.403-15.61,10.21-23.102c6.807-7.49,13.364-11.234,19.673-11.234c2.363,0,4.252,0.728,5.669,2.183
	c1.416,1.455,2.124,3.149,2.124,5.083c0,1.797-0.103,3.213-0.308,4.248c-0.205,1.036-0.825,1.909-1.86,2.622
	c-1.036,0.713-1.864,1.068-2.489,1.068c-0.45,0-0.841-0.194-1.173-0.586c-0.333-0.391-0.498-0.918-0.498-1.582
	c0-0.448,0.166-1.387,0.498-2.813c0.332-1.406,0.498-2.451,0.498-3.135c0-1.992-0.869-2.988-2.606-2.988
	c-2.695,0-6.031,1.548-10.005,4.644c-3.976,3.097-7.35,7.021-10.122,11.777c-2.773,4.756-4.16,9.136-4.16,13.14
	c0,2.677,0.795,4.897,2.388,6.665c1.592,1.769,3.862,2.651,6.813,2.651c1.698,0,3.765-0.425,6.195-1.274
	c2.432-0.849,4.663-1.986,6.694-3.412C171.188,76.006,172.389,75.293,172.76,75.293z"/>
<g>
	<path d="M25.912,121.103c0.43,0.305,1.367,1.022,2.813,2.155c1.522,1.195,2.684,2.062,3.479,2.597s1.365,0.85,1.705,0.942
		c0.34,0.094,0.959,0.172,1.857,0.234c0.03,0.109,0.047,0.23,0.047,0.363c0,0.5-0.131,0.889-0.394,1.166
		c-0.262,0.276-0.614,0.416-1.061,0.416c-0.453,0-0.996-0.166-1.629-0.498s-1.785-1.127-3.457-2.386l-2.672-2.026
		c-0.914-0.728-1.771-1.262-2.566-1.605c-0.195-0.03-0.434,0.07-0.715,0.306c-0.242,0.491-0.414,1.112-0.516,1.862
		c-0.103,0.75-0.152,1.332-0.152,1.746c-0.109,2.148-0.555,3.224-1.336,3.224c-0.305,0-0.547-0.101-0.728-0.3
		c-0.18-0.198-0.27-0.45-0.27-0.756c0-0.227,0.051-0.547,0.152-0.961c0.233-0.969,0.559-3.781,0.973-8.438
		c0.141-1.431,0.316-2.867,0.527-4.313s0.37-2.301,0.479-2.565c0.109-0.266,0.254-0.461,0.435-0.586
		c0.18-0.125,0.352-0.188,0.516-0.188c0.727,0,1.082,0.441,1.065,1.324c-0.538,2.219-0.875,4.281-1.008,6.188
		c-0.047,0.603-0.108,1.199-0.188,1.793c0,0.031,0.002,0.062,0.006,0.088c0.004,0.027,0.045,0.023,0.123-0.012
		s0.326-0.207,0.744-0.516c0.418-0.31,0.871-0.668,1.358-1.078c0.488-0.41,0.877-0.775,1.166-1.096
		c0.181-0.211,0.418-0.449,0.715-0.716c0.97-0.866,1.688-1.553,2.156-2.057s0.906-1.104,1.313-1.799c0.569-1,0.979-1.5,1.229-1.5
		c0.273,0,0.56,0.146,0.855,0.438s0.444,0.584,0.444,0.873c0,0.75-1.188,2.164-3.563,4.242c-0.523,0.453-0.859,0.754-1.008,0.902
		C28.553,118.821,27.584,119.665,25.912,121.103z"/>
	<path d="M40.279,126.024c0,0.594,0.082,1.262,0.246,2.004c0.031,0.141,0.047,0.258,0.047,0.352c0,0.142-0.129,0.322-0.387,0.545
		c-0.259,0.224-0.531,0.334-0.82,0.334c-0.758,0-1.137-0.694-1.137-2.086c0-1.438,0.297-3.711,0.891-6.819
		c0.203-1.086,0.305-1.754,0.305-2.004c0-0.492,0.091-0.912,0.271-1.261c0.18-0.348,0.434-0.521,0.762-0.521
		c0.398,0,0.713,0.096,0.943,0.287c0.229,0.19,0.346,0.403,0.346,0.639s-0.055,0.543-0.164,0.926
		c-0.586,2.063-0.949,3.539-1.09,4.431C40.35,123.741,40.279,124.798,40.279,126.024z M41.814,112.935
		c-0.164,0-0.289-0.177-0.375-0.527c-0.031-0.109-0.074-0.23-0.129-0.363c-0.211-0.508-0.316-0.948-0.316-1.323
		c0-0.313,0.187-0.632,0.557-0.955c0.371-0.324,0.783-0.486,1.236-0.486c0.228,0,0.48,0.088,0.762,0.264
		c0.282,0.176,0.423,0.347,0.423,0.511c0,0.258-0.097,0.694-0.287,1.313c-0.191,0.618-0.496,1.033-0.914,1.248
		S42.033,112.935,41.814,112.935z"/>
	<path d="M54.26,120.868c-0.219,0.008-0.745,0.918-1.581,2.73c-0.688,1.491-1.392,2.821-2.109,3.989s-1.246,1.752-1.582,1.752
		c-0.969,0-1.865-1.438-2.689-4.317c-0.823-2.879-1.235-5.197-1.235-6.955c0-0.57,0.143-1.043,0.428-1.418s0.623-0.578,1.014-0.609
		c0.056-0.008,0.152-0.006,0.293,0.006c0.142,0.013,0.313,0.142,0.517,0.388s0.305,0.485,0.305,0.721v0.047
		c0,0.094-0.043,0.484-0.129,1.172c-0.07,0.508-0.105,1.129-0.105,1.863c0,1.164,0.224,2.449,0.668,3.854
		c0.445,1.406,0.82,2.109,1.125,2.109c0.22,0,0.941-1.188,2.169-3.563c0.772-1.508,1.327-2.547,1.663-3.116l0.375-0.703
		c0.539-1.031,1.052-1.742,1.535-2.133c0.672,0.086,1.008,0.422,1.008,1.008c0,0.194-0.016,0.358-0.047,0.492
		c-0.03,0.133-0.047,0.297-0.047,0.491c0,1.445,0.375,2.959,1.125,4.541s1.285,2.373,1.605,2.373c0.233,0,0.604-0.828,1.112-2.483
		c0.688-2.25,1.322-3.938,1.904-5.063s1.01-1.793,1.283-2.004s0.582-0.315,0.926-0.315c0.195,0,0.361,0.084,0.498,0.252
		s0.205,0.35,0.205,0.545c0,0.289-0.043,0.487-0.129,0.598c-0.969,1.273-1.898,3.262-2.789,5.965
		c-0.758,2.32-1.277,3.777-1.559,4.371c-0.282,0.594-0.517,0.891-0.703,0.891c-0.945,0-1.72-0.346-2.32-1.036
		c-0.601-0.691-1.397-2.529-2.391-5.515C54.482,121.442,54.369,121.134,54.26,120.868z"/>
	<path d="M68.369,126.024c0,0.594,0.082,1.262,0.246,2.004c0.031,0.141,0.047,0.258,0.047,0.352c0,0.142-0.129,0.322-0.387,0.545
		c-0.258,0.224-0.531,0.334-0.82,0.334c-0.758,0-1.137-0.694-1.137-2.086c0-1.438,0.297-3.711,0.891-6.819
		c0.203-1.086,0.306-1.754,0.306-2.004c0-0.492,0.09-0.912,0.27-1.261c0.18-0.348,0.434-0.521,0.762-0.521
		c0.398,0,0.713,0.096,0.943,0.287c0.23,0.19,0.346,0.403,0.346,0.639s-0.055,0.543-0.164,0.926
		c-0.586,2.063-0.948,3.539-1.09,4.431C68.44,123.741,68.369,124.798,68.369,126.024z M69.904,112.935
		c-0.164,0-0.289-0.177-0.375-0.527c-0.031-0.109-0.074-0.23-0.129-0.363c-0.211-0.508-0.316-0.948-0.316-1.323
		c0-0.313,0.187-0.632,0.558-0.955c0.371-0.324,0.782-0.486,1.235-0.486c0.228,0,0.48,0.088,0.763,0.264
		c0.281,0.176,0.422,0.347,0.422,0.511c0,0.258-0.097,0.694-0.287,1.313c-0.191,0.618-0.496,1.033-0.914,1.248
		S70.123,112.935,69.904,112.935z"/>
	<path d="M94.912,125.087c0.305,0,0.457,0.188,0.457,0.563c0,0.391-0.434,0.949-1.301,1.676s-1.869,1.305-3.006,1.734
		c-1.138,0.429-2.179,0.645-3.123,0.645c-1.383,0-2.644-0.457-3.779-1.371s-1.705-2.237-1.705-3.973c0-3.164,1.361-6.244,4.084-9.24
		c2.724-2.996,5.346-4.494,7.869-4.494c0.945,0,1.701,0.291,2.268,0.873c0.567,0.582,0.851,1.26,0.851,2.033
		c0,0.719-0.041,1.285-0.123,1.699s-0.33,0.764-0.744,1.049s-0.746,0.428-0.996,0.428c-0.18,0-0.336-0.078-0.469-0.233
		c-0.133-0.156-0.199-0.367-0.199-0.634c0-0.18,0.066-0.555,0.199-1.125c0.133-0.563,0.199-0.979,0.199-1.254
		c0-0.797-0.349-1.194-1.043-1.194c-1.078,0-2.412,0.619-4.002,1.856c-1.591,1.238-2.939,2.81-4.05,4.711
		c-1.109,1.902-1.664,3.654-1.664,5.256c0,1.07,0.318,1.959,0.955,2.666c0.638,0.707,1.545,1.062,2.726,1.062
		c0.68,0,1.506-0.17,2.479-0.51c0.974-0.341,1.865-0.795,2.679-1.365C94.285,125.374,94.764,125.087,94.912,125.087z"/>
	<path d="M102.4,129.212c-1.07,0-1.953-0.405-2.648-1.219c-0.694-0.813-1.043-1.816-1.043-3.012c0-2.017,0.679-4.002,2.033-5.959
		c1.355-1.957,2.979-2.937,4.869-2.937c1.25,0,2.264,0.48,3.041,1.441s1.166,2.104,1.166,3.434c0,2.031-0.803,3.914-2.408,5.648
		C105.805,128.343,104.135,129.212,102.4,129.212z M100.771,124.677c0,0.789,0.166,1.435,0.498,1.935s0.771,0.75,1.317,0.75
		c1.164,0,2.332-0.639,3.504-1.916c1.173-1.277,1.759-2.697,1.759-4.26c0-0.961-0.226-1.74-0.675-2.338
		c-0.448-0.599-1.053-0.896-1.811-0.896c-1.258,0-2.338,0.771-3.24,2.314C101.222,121.808,100.771,123.278,100.771,124.677z"/>
	<path d="M120.529,119.614c-0.406,0-0.85,0.266-1.33,0.797c-0.479,0.531-1.213,1.723-2.197,3.574
		c-1.297,2.483-2.135,3.897-2.514,4.242c-0.379,0.344-0.693,0.516-0.943,0.516c-0.922,0-1.383-0.445-1.383-1.336
		c0-0.375,0.063-0.906,0.188-1.594c0.43-2.359,0.645-4.849,0.645-7.465c0-0.298,0.127-0.627,0.381-0.99s0.494-0.545,0.722-0.545
		c0.405,0,0.694,0.125,0.866,0.375c0.173,0.25,0.259,0.754,0.259,1.512c0,0.789-0.234,2.414-0.703,4.875
		c-0.156,0.813-0.234,1.328-0.234,1.547c0,0.125,0.031,0.188,0.094,0.188c0.117,0,0.66-0.935,1.629-2.802
		c0.978-1.897,1.832-3.233,2.566-4.008c0.734-0.773,1.543-1.16,2.426-1.16c0.703,0,1.275,0.32,1.717,0.961
		c0.442,0.642,0.765,1.81,0.968,3.505c0.219,1.93,0.416,3.131,0.592,3.604s0.455,0.709,0.838,0.709c0.242,0,0.547-0.086,0.914-0.258
		c0.063-0.031,0.109-0.047,0.141-0.047c0.336,0,0.504,0.194,0.504,0.586c0,0.344-0.229,0.709-0.69,1.096s-1.017,0.58-1.664,0.58
		c-0.664,0-1.178-0.264-1.541-0.791s-0.65-1.936-0.861-4.225C121.693,120.763,121.232,119.614,120.529,119.614z"/>
	<path d="M134.357,125.942c0-0.508-0.625-1.086-1.875-1.734c-1.586-0.813-2.658-1.463-3.217-1.951
		c-0.56-0.487-0.838-1.032-0.838-1.635c0-1.555,0.778-2.844,2.338-3.867c1.559-1.022,2.83-1.535,3.813-1.535
		c0.633,0,1.092,0.109,1.377,0.328c0.285,0.22,0.428,0.599,0.428,1.138c0,0.241-0.104,0.448-0.311,0.621
		c-0.207,0.172-0.369,0.258-0.486,0.258c-0.086,0-0.254-0.06-0.504-0.176c-0.25-0.109-0.414-0.164-0.492-0.164
		c-0.391,0-1.184,0.284-2.379,0.854c-1.194,0.57-1.793,1.215-1.793,1.935c0,0.438,0.211,0.834,0.633,1.188
		c0.423,0.355,1.181,0.791,2.273,1.307c0.883,0.423,1.588,0.873,2.115,1.354c0.526,0.48,0.791,1.045,0.791,1.693
		c0,1.194-0.824,2.131-2.474,2.807c-1.648,0.676-3.223,1.014-4.723,1.014c-1.266,0-1.897-0.43-1.897-1.289
		c0-0.297,0.143-0.516,0.428-0.655c0.285-0.141,0.572-0.211,0.86-0.211c0.117,0,0.341,0.038,0.668,0.116
		c0.32,0.078,0.531,0.117,0.634,0.117c0.866,0,1.797-0.145,2.789-0.434C133.508,126.732,134.123,126.372,134.357,125.942z"/>
	<path d="M148.678,124.653c0,0.797-0.705,1.758-2.115,2.883s-2.865,1.688-4.365,1.688c-1.258,0-2.229-0.371-2.912-1.113
		s-1.024-1.777-1.024-3.105c0-2.233,0.754-4.358,2.262-6.375c1.508-2.016,3.156-3.022,4.944-3.022c0.587,0,1.064,0.19,1.437,0.574
		c0.372,0.383,0.557,0.844,0.557,1.383c0,1.203-0.59,2.354-1.77,3.457c-1.18,1.102-2.758,2.184-4.734,3.246
		c-0.406,0.211-0.608,0.483-0.608,0.819c0,0.648,0.188,1.168,0.563,1.56c0.375,0.391,0.93,0.586,1.664,0.586
		c1.68,0,3.396-0.931,5.146-2.789c0.258-0.258,0.452-0.387,0.586-0.387C148.553,124.056,148.678,124.255,148.678,124.653z
		 M140.533,122.825c3.313-1.969,4.969-3.551,4.969-4.746c0-0.469-0.211-0.703-0.633-0.703c-0.719,0-1.529,0.527-2.432,1.582
		C141.534,120.013,140.9,121.302,140.533,122.825z"/>
	<path d="M153.494,123.974c0.078-0.142,0.172-0.336,0.281-0.586c0.531-1.22,1.02-2.175,1.465-2.865
		c0.445-0.691,0.936-1.354,1.471-1.986s1.023-1.113,1.465-1.44c0.442-0.328,0.843-0.558,1.201-0.687
		c0.359-0.129,0.707-0.193,1.043-0.193c0.681,0,1.234,0.205,1.664,0.615c0.431,0.41,0.646,0.89,0.646,1.437
		c0,0.241-0.076,0.461-0.229,0.655c-0.152,0.195-0.385,0.293-0.696,0.293c-0.328,0-0.63-0.145-0.902-0.434
		c-0.281-0.289-0.574-0.434-0.879-0.434c-0.813,0-1.938,0.983-3.375,2.952c-1.438,1.97-2.313,4.138-2.625,6.505
		c-0.078,0.608-0.228,1.012-0.445,1.207c-0.218,0.194-0.527,0.293-0.926,0.293c-0.383,0-0.66-0.285-0.832-0.855
		s-0.258-1.531-0.258-2.883c0-0.367,0.02-1.176,0.059-2.426c0.047-1.478,0.142-2.668,0.281-3.574
		c0.022-0.148,0.063-0.496,0.117-1.043c0.055-0.603,0.123-1.021,0.205-1.254c0.082-0.234,0.25-0.453,0.504-0.656
		s0.528-0.305,0.826-0.305c0.288,0,0.506,0.092,0.649,0.274c0.145,0.184,0.217,0.381,0.217,0.592c0,0.306-0.078,0.734-0.233,1.289
		c-0.181,0.617-0.285,1.043-0.316,1.277c-0.022,0.266-0.065,0.543-0.129,0.832c-0.078,0.336-0.156,1.219-0.234,2.648l-0.012,0.434
		L153.494,123.974L153.494,123.974z"/>
	<path d="M166.654,128.767c0.016-0.453-0.316-1.625-0.996-3.517c-1.289-3.522-1.934-5.977-1.934-7.358
		c0-1.103,0.366-1.652,1.102-1.652c0.719,0,1.078,0.492,1.078,1.477c0,0.806,0.025,1.425,0.076,1.857s0.235,1.227,0.557,2.379
		s0.672,2.221,1.055,3.205c0.195,0.516,0.337,0.91,0.423,1.184c0.164-0.25,0.375-0.594,0.633-1.03
		c1.375-2.313,2.471-4.095,3.287-5.345c0.815-1.25,1.481-2.159,1.998-2.729c0.516-0.57,0.895-0.912,1.137-1.025
		c0.242-0.112,0.488-0.17,0.738-0.17c0.305,0,0.545,0.109,0.721,0.328s0.264,0.469,0.264,0.75c0,0.367-0.319,0.766-0.961,1.195
		c-0.602,0.406-1.488,1.426-2.66,3.059s-2.438,3.715-3.797,6.246c-0.694,1.281-1.229,1.922-1.604,1.922
		C167.439,129.54,167.068,129.282,166.654,128.767z"/>
	<path d="M185.404,124.36c-1.094,1.469-2.176,2.57-3.246,3.305c-1.07,0.735-2.051,1.103-2.941,1.103
		c-0.602,0-1.12-0.254-1.559-0.763c-0.438-0.508-0.656-1.16-0.656-1.957c0-2.055,0.918-4.268,2.754-6.639s3.66-3.557,5.474-3.557
		c0.656,0,1.145,0.375,1.465,1.125c0.102,0.25,0.262,0.375,0.479,0.375c0.625,0,0.938,0.241,0.938,0.727
		c0,0.242-0.039,0.574-0.117,0.996c-0.422,2.305-0.633,3.93-0.633,4.875c0,1.891,0.359,3.023,1.078,3.398
		c0.344,0.188,0.516,0.418,0.516,0.69c0,0.242-0.168,0.486-0.504,0.732s-0.66,0.369-0.973,0.369c-0.603,0-1.099-0.414-1.488-1.242
		S185.404,125.892,185.404,124.36z M184.689,117.763c-1.031,0-2.23,0.967-3.599,2.899c-1.367,1.934-2.051,3.537-2.051,4.812
		c0,0.897,0.297,1.348,0.892,1.348c0.858,0,2.051-0.867,3.573-2.603c1.523-1.734,2.285-3.327,2.285-4.78
		C185.791,118.321,185.424,117.763,184.689,117.763z"/>
	<path d="M196.361,116.802c0.805-0.063,1.563-0.137,2.272-0.223c0.703-0.078,1.289-0.117,1.759-0.117
		c0.594,0,0.969,0.056,1.125,0.164c0.155,0.109,0.233,0.301,0.233,0.574c0,0.633-0.44,0.977-1.324,1.031
		c-1.133,0.069-2.176,0.168-3.129,0.293c-0.952,0.125-1.467,0.229-1.541,0.311c-0.073,0.082-0.311,1.013-0.709,2.789
		c-0.397,1.777-0.598,2.933-0.598,3.463c0,0.859,0.113,1.433,0.34,1.718c0.228,0.284,0.566,0.428,1.021,0.428
		c0.672,0,1.604-0.504,2.801-1.513c0.461-0.413,0.815-0.62,1.065-0.62c0.337,0,0.505,0.18,0.505,0.539
		c0,0.563-0.541,1.291-1.623,2.186s-2.189,1.342-3.322,1.342c-1.892,0-2.836-1.113-2.836-3.34c0-0.805,0.194-2.051,0.586-3.738
		c0.383-1.68,0.574-2.688,0.574-3.022c0-0.117-0.095-0.176-0.281-0.176l-1.219,0.104c-1,0-1.5-0.397-1.5-1.195
		c0-0.452,0.229-0.68,0.69-0.68h2.414c0.164,0,0.31-0.074,0.435-0.223c0.125-0.149,0.309-0.646,0.551-1.494s0.457-1.687,0.645-2.514
		c0.188-0.82,0.556-1.23,1.103-1.23c0.336,0,0.598,0.117,0.785,0.352c0.187,0.235,0.28,0.453,0.28,0.656
		c0,0.109-0.141,0.668-0.422,1.676L196.361,116.802z"/>
	<path d="M205.08,126.024c0,0.594,0.082,1.262,0.246,2.004c0.031,0.141,0.047,0.258,0.047,0.352c0,0.142-0.129,0.322-0.387,0.545
		c-0.258,0.224-0.531,0.334-0.82,0.334c-0.758,0-1.137-0.694-1.137-2.086c0-1.438,0.297-3.711,0.891-6.819
		c0.203-1.086,0.306-1.754,0.306-2.004c0-0.492,0.09-0.912,0.27-1.261c0.18-0.348,0.435-0.521,0.762-0.521
		c0.398,0,0.714,0.096,0.943,0.287c0.23,0.19,0.346,0.403,0.346,0.639s-0.055,0.543-0.164,0.926
		c-0.586,2.063-0.948,3.539-1.09,4.431C205.151,123.741,205.08,124.798,205.08,126.024z M206.615,112.935
		c-0.164,0-0.289-0.177-0.375-0.527c-0.031-0.109-0.074-0.23-0.129-0.363c-0.211-0.508-0.316-0.948-0.316-1.323
		c0-0.313,0.187-0.632,0.558-0.955c0.371-0.324,0.783-0.486,1.235-0.486c0.228,0,0.48,0.088,0.763,0.264
		c0.281,0.176,0.422,0.347,0.422,0.511c0,0.258-0.097,0.694-0.287,1.313c-0.191,0.618-0.496,1.033-0.914,1.248
		S206.834,112.935,206.615,112.935z"/>
	<path d="M213.201,129.212c-1.07,0-1.953-0.405-2.647-1.219c-0.695-0.813-1.043-1.816-1.043-3.012c0-2.017,0.678-4.002,2.032-5.959
		c1.355-1.957,2.979-2.937,4.869-2.937c1.25,0,2.265,0.48,3.041,1.441c0.777,0.961,1.166,2.104,1.166,3.434
		c0,2.031-0.803,3.914-2.408,5.648C216.606,128.343,214.936,129.212,213.201,129.212z M211.572,124.677
		c0,0.789,0.166,1.435,0.498,1.935s0.771,0.75,1.318,0.75c1.164,0,2.332-0.639,3.504-1.916s1.758-2.697,1.758-4.26
		c0-0.961-0.226-1.74-0.674-2.338c-0.449-0.599-1.054-0.896-1.812-0.896c-1.258,0-2.338,0.771-3.24,2.314
		C212.023,121.808,211.572,123.278,211.572,124.677z"/>
	<path d="M231.33,119.614c-0.406,0-0.85,0.266-1.33,0.797c-0.479,0.531-1.213,1.723-2.196,3.574
		c-1.298,2.483-2.136,3.897-2.515,4.242c-0.379,0.344-0.692,0.516-0.942,0.516c-0.923,0-1.384-0.445-1.384-1.336
		c0-0.375,0.063-0.906,0.188-1.594c0.43-2.359,0.645-4.849,0.645-7.465c0-0.298,0.127-0.627,0.382-0.99
		c0.254-0.363,0.493-0.545,0.721-0.545c0.406,0,0.695,0.125,0.867,0.375s0.258,0.754,0.258,1.512c0,0.789-0.234,2.414-0.703,4.875
		c-0.156,0.813-0.234,1.328-0.234,1.547c0,0.125,0.031,0.188,0.095,0.188c0.116,0,0.659-0.935,1.629-2.802
		c0.977-1.897,1.832-3.233,2.565-4.008c0.734-0.773,1.543-1.16,2.426-1.16c0.703,0,1.275,0.32,1.718,0.961
		c0.441,0.642,0.764,1.81,0.967,3.505c0.219,1.93,0.416,3.131,0.592,3.604s0.455,0.709,0.838,0.709c0.242,0,0.547-0.086,0.914-0.258
		c0.063-0.031,0.109-0.047,0.142-0.047c0.336,0,0.504,0.194,0.504,0.586c0,0.344-0.23,0.709-0.691,1.096s-1.016,0.58-1.664,0.58
		c-0.664,0-1.178-0.264-1.541-0.791s-0.649-1.936-0.861-4.225C232.494,120.763,232.033,119.614,231.33,119.614z"/>
	<path d="M261.107,125.087c0.305,0,0.457,0.188,0.457,0.563c0,0.391-0.435,0.949-1.301,1.676c-0.867,0.727-1.869,1.305-3.007,1.734
		c-1.137,0.429-2.178,0.645-3.123,0.645c-1.383,0-2.643-0.457-3.778-1.371s-1.705-2.237-1.705-3.973c0-3.164,1.361-6.244,4.084-9.24
		s5.346-4.494,7.869-4.494c0.944,0,1.701,0.291,2.268,0.873c0.567,0.582,0.851,1.26,0.851,2.033c0,0.719-0.041,1.285-0.123,1.699
		s-0.33,0.764-0.744,1.049s-0.746,0.428-0.996,0.428c-0.18,0-0.336-0.078-0.469-0.233c-0.134-0.156-0.199-0.367-0.199-0.634
		c0-0.18,0.065-0.555,0.199-1.125c0.133-0.563,0.198-0.979,0.198-1.254c0-0.797-0.348-1.194-1.043-1.194
		c-1.077,0-2.411,0.619-4.002,1.856c-1.59,1.238-2.938,2.81-4.049,4.711c-1.109,1.902-1.664,3.654-1.664,5.256
		c0,1.07,0.318,1.959,0.955,2.666s1.545,1.062,2.726,1.062c0.68,0,1.506-0.17,2.479-0.51c0.973-0.341,1.865-0.795,2.678-1.365
		C260.48,125.374,260.959,125.087,261.107,125.087z"/>
	<path d="M269.744,108.786c0.563,0,0.844,0.359,0.844,1.078c0,0.641-0.34,2.164-1.02,4.57c-0.43,1.516-0.762,3.188-0.996,5.016
		s-0.352,3.262-0.352,4.301c0,1.289,0.082,2.57,0.245,3.845c0.031,0.241,0.048,0.418,0.048,0.526c0,0.392-0.134,0.728-0.398,1.008
		c-0.265,0.281-0.547,0.422-0.844,0.422c-0.414,0-0.701-0.258-0.861-0.772s-0.24-1.348-0.24-2.496c0-2.617,0.314-5.859,0.943-9.727
		c0.629-3.868,1.129-6.13,1.5-6.785C268.984,109.115,269.361,108.786,269.744,108.786z"/>
	<path d="M280.783,123.528c-1,1.68-2.023,2.979-3.07,3.902c-1.047,0.922-2.02,1.383-2.918,1.383c-0.516,0-1.041-0.301-1.575-0.902
		c-0.535-0.601-0.804-1.527-0.804-2.777c0-1.022,0.246-2.53,0.738-4.522c0.414-1.664,0.621-2.832,0.621-3.504
		c0.227-0.469,0.582-0.703,1.065-0.703c0.328,0,0.591,0.115,0.785,0.346c0.195,0.231,0.293,0.472,0.293,0.722
		c0,0.547-0.19,1.323-0.573,2.331c-0.728,1.962-1.091,3.646-1.091,5.052c0,1.28,0.298,1.922,0.892,1.922
		c0.758,0,1.723-0.646,2.895-1.935s2.176-3.086,3.013-5.391c0.327-0.922,0.596-1.521,0.803-1.799s0.485-0.416,0.838-0.416
		c0.531,0,0.797,0.352,0.797,1.055c0,0.086-0.074,0.371-0.223,0.855c-0.47,1.711-0.703,3.328-0.703,4.852
		c0,1.828,0.301,3.012,0.901,3.551c0.313,0.289,0.47,0.523,0.47,0.703c0,0.22-0.158,0.418-0.476,0.599
		c-0.316,0.18-0.604,0.27-0.86,0.27c-0.547,0-0.988-0.406-1.324-1.219c-0.336-0.813-0.504-2.012-0.504-3.599v-0.387
		C280.771,123.79,280.775,123.661,280.783,123.528z"/>
	<path d="M289.291,121.958c1-1.819,2.195-3.295,3.586-4.424c1.392-1.129,2.646-1.693,3.763-1.693c0.617,0,1.141,0.285,1.57,0.855
		c0.429,0.57,0.645,1.266,0.645,2.086c0,2.43-0.916,4.709-2.748,6.838s-3.769,3.193-5.808,3.193c-0.555,0-1.063-0.15-1.528-0.451
		s-0.726-0.678-0.779-1.131c-0.031-0.367-0.137-0.642-0.316-0.82c-0.336-0.336-0.504-0.695-0.504-1.078
		c0-0.711,0.195-2.229,0.586-4.559l1.207-7.008c0.414-2.353,0.718-3.806,0.908-4.359c0.191-0.554,0.404-0.926,0.64-1.113
		c0.234-0.187,0.522-0.28,0.866-0.28c0.547,0,0.82,0.473,0.82,1.418c0,0.897-0.301,2.155-0.902,3.772
		C290.717,114.759,290.049,117.677,289.291,121.958z M289.01,125.86c0.405,0.758,0.897,1.137,1.477,1.137
		c0.891,0,1.832-0.369,2.824-1.106c0.992-0.738,1.85-1.777,2.572-3.117c0.722-1.34,1.084-2.472,1.084-3.394
		c0-0.414-0.074-0.77-0.224-1.065c-0.148-0.296-0.336-0.445-0.563-0.445c-1.086,0-2.412,0.889-3.979,2.666
		C290.635,122.312,289.572,124.087,289.01,125.86z"/>
</g>
</svg>
